# xmcd
#
# Track frame offsets: 
#        150
#        13310
#        27360
#        41840
#        53530
#        65545
#        79735
#        95475
#        111007
#        123177
#        137497
#        150972
#        164182
#        177185
#        194262
#        207562
#        222407
#        239610
#        274765
#        290980
#
# Disc length: 4103 seconds
#
# Revision: 0
# Processed by: cddbd v1.4PL0 Copyright (c) Steve Scherf et al.
# Submitted via: ExactAudioCopy v0.90b4
#
DISCID=2d100514
DTITLE=Lacy J. Dalton - Anthology
DYEAR=1900
DGENRE=Country
TTITLE0=Crazy Blue Eyes
TTITLE1=Tennessee Waltz
TTITLE2=Losing Kind Of Love
TTITLE3=Hard Times
TTITLE4=Hillbilly Girl With The Blues
TTITLE5=Whisper
TTITLE6=Takin' It Easy
TTITLE7=Everybody Makes Mistakes
TTITLE8=Slow Down
TTITLE9=16Th Avenue
TTITLE10=It's A Dirty Job
TTITLE11=Dream Baby (How Long Must I Dream)
TTITLE12=If That Ain't Love
TTITLE13=You Can't Run Away From Your Heart
TTITLE14=Size Seven Round (Made Of Gold)
TTITLE15=Working Class Man
TTITLE16=This Ol' Town
TTITLE17=The Heart
TTITLE18=Hard Luck Ace
TTITLE19=Don't Fall In Love With Me
EXTD=
EXTT0=
EXTT1=
EXTT2=
EXTT3=
EXTT4=
EXTT5=
EXTT6=
EXTT7=
EXTT8=
EXTT9=
EXTT10=
EXTT11=
EXTT12=
EXTT13=
EXTT14=
EXTT15=
EXTT16=
EXTT17=
EXTT18=
EXTT19=
PLAYORDER=
